<?xml version="1.0" encoding="utf-8"?>
<!-- Generator: Adobe Illustrator 23.0.2, SVG Export Plug-In . SVG Version: 6.00 Build 0)  -->
<svg version="1.1" id="Ñëîé_1" xmlns="http://www.w3.org/2000/svg" xmlns:xlink="http://www.w3.org/1999/xlink" x="0px" y="0px"
	 viewBox="0 0 478.67 290.67" style="enable-background:new 0 0 478.67 290.67;" xml:space="preserve">
<style type="text/css">
	.st0{fill:#FFFFFF;}
	.st1{fill:#FF206E;}
</style>
<rect x="22.64" y="42.71" class="st0" width="435.75" height="195.63"/>
<g>
	<path class="st1" d="M432.96,31.85h-72.89c0.27-1.18,0.46-2.46,0.46-3.65c0-9.48-7.66-17.04-17.04-17.04h-6.65
		c-9.47,0-17.04,7.56-17.04,17.04c0,1.19,0.18,2.46,0.46,3.65H161.17c0.18-1.18,0.36-2.37,0.36-3.65c0-9.38-7.65-16.95-16.95-16.95
		h-6.74c-9.38,0-16.95,7.56-16.95,16.95c0,1.28,0.09,2.46,0.37,3.65H48.1c-19.5,0-35.35,15.85-35.35,35.35v146.61
		c0,19.5,15.86,35.35,35.35,35.35h51.84c-2.1,2.55-3.28,5.37-3.28,8.47c0,9.75,11.66,17.58,25.97,17.58h235.71
		c14.4,0,26.06-7.83,26.06-17.58c0-3.1-1.18-5.92-3.28-8.47h51.84c19.5,0,35.35-15.85,35.35-35.35V67.21
		C468.32,47.71,452.46,31.85,432.96,31.85L432.96,31.85z M451.28,213.81L451.28,213.81c0,10.12-8.2,18.31-18.31,18.31H48.1
		c-10.12,0-18.31-8.2-18.31-18.31V67.21c0-10.21,8.2-18.32,18.31-18.32h384.86c10.11,0,18.31,8.11,18.31,18.32V213.81z"/>
</g>
</svg>
