<?xml version="1.0" encoding="utf-8"?>
<!-- Generator: Adobe Illustrator 23.0.2, SVG Export Plug-In . SVG Version: 6.00 Build 0)  -->
<svg version="1.1" id="Ñëîé_1" xmlns="http://www.w3.org/2000/svg" xmlns:xlink="http://www.w3.org/1999/xlink" x="0px" y="0px"
	 viewBox="0 0 104.67 256" style="enable-background:new 0 0 104.67 256;" xml:space="preserve">
<style type="text/css">
	.st0{fill:#41EAD4;}
	.st1{fill:#FFFFFF;}
	.st2{fill:#FF206E;}
</style>
<g>
	<path class="st0" d="M79.33,164.65V15.35c0-5.16-4.18-9.35-9.35-9.35H36.68c-5.16,0-9.35,4.18-9.35,9.35v149.31
		c0,5.16-4.18,9.35-9.35,9.35h-2.72c-7.43,0-11.89,8.24-7.82,14.46l38.06,58.24c3.69,5.64,11.96,5.64,15.65,0l38.06-58.24
		c4.06-6.22-0.4-14.46-7.82-14.46h-2.72C83.52,174,79.33,169.82,79.33,164.65z"/>
	<path class="st1" d="M67.26,175.24c-0.43,1.71-0.98,3.05-1.67,4.01l-4.65-2.47c0.63-0.96,1.14-2.13,1.52-3.52
		c0.38-1.38,0.58-2.78,0.58-4.17c0-1.45-0.18-2.54-0.55-3.25s-0.9-1.07-1.58-1.07c-0.55,0-0.95,0.32-1.19,0.95
		c-0.25,0.63-0.51,1.64-0.78,3.04c-0.3,1.59-0.63,2.9-0.99,3.93c-0.36,1.03-0.94,1.92-1.75,2.67c-0.81,0.75-1.91,1.13-3.31,1.13
		c-2.44,0-4.35-1.02-5.72-3.06c-1.37-2.04-2.06-4.72-2.06-8.04c0-1.53,0.16-3.03,0.49-4.48c0.33-1.45,0.78-2.69,1.36-3.7l4.69,2.3
		c-1.12,1.81-1.69,3.99-1.69,6.54c0,1.4,0.21,2.46,0.62,3.19c0.41,0.73,0.93,1.09,1.56,1.09c0.58,0,0.99-0.31,1.25-0.95
		c0.26-0.63,0.54-1.69,0.84-3.17c0.3-1.56,0.62-2.84,0.97-3.85c0.34-1,0.91-1.87,1.71-2.61c0.79-0.74,1.88-1.11,3.25-1.11
		c2.47,0,4.37,1.03,5.72,3.1c1.34,2.07,2.01,4.75,2.01,8.04C67.89,171.71,67.68,173.52,67.26,175.24z"/>
	<path class="st1" d="M66.66,150.31c-0.82,1.69-1.98,2.99-3.47,3.91c-1.49,0.92-3.23,1.38-5.2,1.38c-2.44,0-4.63-0.58-6.58-1.73
		c-1.95-1.15-3.48-2.74-4.61-4.77c-1.12-2.03-1.69-4.32-1.69-6.87c0-2.25,0.41-4.21,1.23-5.88c0.82-1.67,1.98-2.97,3.48-3.89
		c1.49-0.92,3.23-1.38,5.2-1.38c2.44,0,4.63,0.57,6.58,1.71c1.95,1.14,3.48,2.73,4.61,4.77c1.12,2.04,1.69,4.34,1.69,6.89
		C67.89,146.67,67.48,148.63,66.66,150.31z M61.66,140.71c-0.62-0.99-1.47-1.75-2.57-2.3c-1.1-0.55-2.36-0.82-3.78-0.82
		c-1.51,0-2.7,0.44-3.58,1.32c-0.88,0.88-1.32,2.11-1.32,3.7c0,1.26,0.31,2.38,0.93,3.37s1.47,1.76,2.57,2.3
		c1.1,0.55,2.36,0.82,3.78,0.82c1.51,0,2.7-0.45,3.58-1.34c0.88-0.89,1.32-2.13,1.32-3.72C62.59,142.81,62.28,141.7,61.66,140.71z"
		/>
	<path class="st1" d="M60,103.9v5.8l7.57,1.52v2.96L60,112.66v16.2l-2.14-0.41l-19.08-18.84v-3.5l18.59,18.26v-12.34l-6.66-1.36
		v-2.84l6.66,1.32v-5.76L60,103.9z"/>
	<path class="st2" d="M44.12,90.16l7.61,1.52V78.31l5.35,1.11v13.29l10.49,2.1v6.7l-28.79-5.76V74l5.35,1.11V90.16z"/>
	<path class="st2" d="M38.77,69.47v-6.7l28.79,5.76v6.7L38.77,69.47z"/>
	<path class="st2" d="M44.2,51.13v9.21l-5.43-1.11V34.14l5.43,1.11v9.17l23.36,4.69v6.66L44.2,51.13z"/>
</g>
</svg>
