<?xml version="1.0" encoding="utf-8"?>
<!-- Generator: Adobe Illustrator 23.0.2, SVG Export Plug-In . SVG Version: 6.00 Build 0)  -->
<svg version="1.1" id="Layer_1" xmlns="http://www.w3.org/2000/svg" xmlns:xlink="http://www.w3.org/1999/xlink" x="0px" y="0px"
	 viewBox="0 0 209 98" style="enable-background:new 0 0 209 98;" xml:space="preserve">
<style type="text/css">
	.st0{fill:#41EAD4;}
	.st1{fill:#FFFFFF;}
	.st2{fill:#FF206E;}
</style>
<path class="st0" d="M196.75,18.46H21.44c-2.47,0-4.59,1.75-5.06,4.17L7.19,69.9c-0.62,3.18,1.82,6.13,5.06,6.13h175.31
	c2.47,0,4.59-1.75,5.06-4.17l9.19-47.28C202.43,21.41,199.99,18.46,196.75,18.46z"/>
<g>
	<path class="st1" d="M22.23,65.3c-2.04-0.58-3.63-1.34-4.76-2.26l2.21-3.91c1.06,0.86,2.44,1.53,4.14,2.03s3.47,0.75,5.32,0.75
		c2.33,0,4.11-0.35,5.32-1.05c1.22-0.7,1.83-1.69,1.83-2.96c0-1.03-0.49-1.77-1.47-2.21c-0.98-0.45-2.49-0.89-4.55-1.34
		c-1.92-0.41-3.49-0.83-4.71-1.26c-1.22-0.43-2.25-1.11-3.11-2.06c-0.86-0.94-1.29-2.22-1.29-3.83c0-1.78,0.51-3.34,1.52-4.68
		c1.01-1.34,2.45-2.37,4.32-3.09c1.87-0.72,4.04-1.08,6.51-1.08c1.82,0,3.58,0.22,5.3,0.67c1.71,0.45,3.12,1.05,4.22,1.8l-1.95,3.91
		c-1.06-0.72-2.3-1.26-3.7-1.62c-1.41-0.36-2.85-0.54-4.32-0.54c-2.23,0-3.94,0.37-5.14,1.11c-1.2,0.74-1.8,1.72-1.8,2.96
		c0,1.1,0.5,1.88,1.49,2.34c0.99,0.46,2.54,0.92,4.63,1.36c1.89,0.41,3.43,0.82,4.63,1.23c1.2,0.41,2.22,1.08,3.06,2.01
		c0.84,0.93,1.26,2.18,1.26,3.75c0,2.78-1.14,4.95-3.42,6.51s-5.31,2.34-9.08,2.34C26.42,66.17,24.27,65.88,22.23,65.3z"/>
	<path class="st1" d="M51.88,64.71c-1.92-0.98-3.41-2.36-4.47-4.14c-1.06-1.78-1.59-3.84-1.59-6.17c0-3.05,0.69-5.79,2.06-8.23
		c1.37-2.43,3.27-4.35,5.71-5.73c2.43-1.39,5.18-2.08,8.23-2.08c2.57,0,4.82,0.48,6.74,1.44c1.92,0.96,3.4,2.32,4.45,4.09
		c1.05,1.77,1.57,3.83,1.57,6.2c0,3.05-0.69,5.8-2.06,8.25c-1.37,2.45-3.27,4.37-5.68,5.76s-5.15,2.08-8.2,2.08
		C56.05,66.17,53.8,65.68,51.88,64.71z M64.41,60.38c1.63-0.98,2.9-2.34,3.81-4.09c0.91-1.75,1.36-3.74,1.36-5.97
		c0-2.43-0.7-4.32-2.11-5.66c-1.41-1.34-3.41-2.01-6.02-2.01c-2.02,0-3.84,0.49-5.45,1.47c-1.61,0.98-2.88,2.34-3.81,4.09
		c-0.93,1.75-1.39,3.74-1.39,5.97c0,2.4,0.71,4.28,2.13,5.63c1.42,1.35,3.42,2.03,5.99,2.03C60.95,61.85,62.78,61.36,64.41,60.38z"
		/>
	<path class="st2" d="M110.26,58.3h-5.92l-1.49,7.56h-8.13l1.54-7.56H76.88l1.08-5.61l21.19-22.84h9.1L88.5,51.51h9.46l1.34-6.74
		h7.77l-1.34,6.74h5.92L110.26,58.3z"/>
	<path class="st1" d="M124.15,30.84l-3.45,17.28h19.85l-0.21,0.98H120.5l-3.34,16.77h-1.03l7.2-36h23.2l-0.21,0.98H124.15z"/>
	<path class="st1" d="M155.67,29.86h1.03l-7.2,36h-1.03L155.67,29.86z"/>
	<path class="st1" d="M176.92,30.84h-13.37l0.21-0.98h27.77l-0.21,0.98h-13.37l-7,35.03h-1.03L176.92,30.84z"/>
</g>
</svg>
