<?xml version="1.0" encoding="utf-8"?>
<!-- Generator: Adobe Illustrator 23.0.2, SVG Export Plug-In . SVG Version: 6.00 Build 0)  -->
<svg version="1.1" id="Layer_1" xmlns="http://www.w3.org/2000/svg" xmlns:xlink="http://www.w3.org/1999/xlink" x="0px" y="0px"
	 viewBox="0 0 209 98" style="enable-background:new 0 0 209 98;" xml:space="preserve">
<style type="text/css">
	.st0{fill:#41EAD4;}
	.st1{fill:#FFFFFF;}
	.st2{fill:#FF206E;}
</style>
<path class="st0" d="M196.75,18.46H21.44c-2.47,0-4.59,1.75-5.06,4.17L7.19,69.9c-0.62,3.18,1.82,6.13,5.06,6.13h175.31
	c2.47,0,4.59-1.75,5.06-4.17l9.19-47.28C202.43,21.41,199.99,18.46,196.75,18.46z"/>
<g>
	<path class="st1" d="M23.08,63.9c-2.04-0.5-3.62-1.16-4.76-1.98l2.93-5.52c1.14,0.75,2.53,1.35,4.18,1.81
		c1.64,0.46,3.3,0.68,4.96,0.68c1.73,0,3.01-0.22,3.86-0.66s1.27-1.07,1.27-1.88c0-0.65-0.38-1.12-1.12-1.42s-1.95-0.6-3.62-0.93
		c-1.89-0.36-3.44-0.75-4.67-1.17c-1.22-0.42-2.28-1.12-3.18-2.08c-0.9-0.96-1.34-2.27-1.34-3.93c0-2.9,1.21-5.16,3.64-6.79
		c2.43-1.63,5.61-2.44,9.55-2.44c1.82,0,3.6,0.2,5.33,0.59c1.73,0.39,3.19,0.93,4.4,1.61l-2.74,5.57c-2.15-1.34-4.74-2-7.77-2
		c-1.66,0-2.92,0.24-3.79,0.73c-0.86,0.49-1.29,1.11-1.29,1.86c0,0.68,0.37,1.18,1.12,1.49c0.75,0.31,2,0.64,3.76,1
		c1.86,0.36,3.38,0.74,4.57,1.15c1.19,0.41,2.22,1.08,3.1,2.03c0.88,0.94,1.32,2.23,1.32,3.86c0,2.93-1.23,5.2-3.69,6.79
		c-2.46,1.6-5.64,2.39-9.55,2.39C27.27,64.66,25.11,64.4,23.08,63.9z"/>
	<path class="st1" d="M52.68,63.19c-2-0.98-3.55-2.35-4.64-4.13c-1.09-1.78-1.64-3.84-1.64-6.18c0-2.9,0.68-5.5,2.05-7.82
		c1.37-2.31,3.26-4.14,5.67-5.47c2.41-1.34,5.13-2,8.16-2c2.67,0,5,0.49,6.99,1.47c1.99,0.98,3.53,2.35,4.62,4.13
		c1.09,1.78,1.64,3.84,1.64,6.18c0,2.9-0.68,5.5-2.03,7.82c-1.35,2.31-3.24,4.14-5.67,5.47c-2.43,1.34-5.15,2-8.18,2
		C57.01,64.66,54.69,64.17,52.68,63.19z M64.09,57.25c1.17-0.73,2.08-1.75,2.74-3.05c0.65-1.3,0.98-2.8,0.98-4.49
		c0-1.79-0.52-3.21-1.56-4.25c-1.04-1.04-2.51-1.56-4.4-1.56c-1.5,0-2.83,0.37-4.01,1.1s-2.08,1.75-2.74,3.05
		c-0.65,1.3-0.98,2.8-0.98,4.5c0,1.79,0.53,3.21,1.59,4.25c1.06,1.04,2.53,1.56,4.42,1.56C61.6,58.35,62.92,57.99,64.09,57.25z"/>
	<path class="st1" d="M107.82,55.28h-6.89l-1.81,8.99h-3.52l1.81-8.99H78.17l0.49-2.54l22.38-22.67h4.15L83.49,52.15h14.66
		l1.61-7.92h3.37l-1.56,7.92h6.84L107.82,55.28z"/>
	<path class="st2" d="M124.14,36.42l-1.81,9.04h15.88l-1.32,6.35h-15.78l-2.49,12.46h-7.96l6.84-34.2h25.85l-1.32,6.35H124.14z"/>
	<path class="st2" d="M148.72,30.06h7.96l-6.84,34.2h-7.96L148.72,30.06z"/>
	<path class="st2" d="M170.51,36.51h-10.94l1.32-6.45h29.8l-1.32,6.45h-10.9l-5.57,27.75h-7.92L170.51,36.51z"/>
</g>
</svg>
