<?xml version="1.0" encoding="utf-8"?>
<!-- Generator: Adobe Illustrator 23.0.2, SVG Export Plug-In . SVG Version: 6.00 Build 0)  -->
<svg version="1.1" id="Layer_1" xmlns="http://www.w3.org/2000/svg" xmlns:xlink="http://www.w3.org/1999/xlink" x="0px" y="0px"
	 viewBox="0 0 500 500" style="enable-background:new 0 0 500 500;" xml:space="preserve">
<style type="text/css">
	.st0{fill:#E49063;}
	.st1{fill:#FAB47E;}
	.st2{fill:#3C2415;}
	.st3{fill:#FFDCAA;}
	.st4{fill:#FBC495;}
	.st5{fill:#903918;}
	.st6{fill:#B26E37;}
	.st7{fill:#0071BC;}
	.st8{fill:#ED1C24;}
	.st9{fill:#C7514C;}
	.st10{fill:#CF7656;}
	.st11{fill:#DD795B;}
	.st12{fill:#754C29;}
</style>
<g>
	<g>
		<path class="st0" d="M223.31,365.37c2.29-11.97,3.54-30.08,3.75-48.77c-12.52-0.16-24.59-1.54-35.94-3.95
			c1.99,23.36,8.12,47.64,15.82,59.51c-2.51,6.67-4.02,17.05-4.02,32.89c0,26.06,9.13,54.75,14.3,68.92
			c-3.53,3.08-11.19,10.25-11.19,14.7c0,5.78,20.84,5.78,20.84,0c0-3.74-3.29-9.39-5.63-12.93
			C222.91,453.07,227.57,383.42,223.31,365.37z"/>
		<path class="st1" d="M235.06,365.37c-2.29-11.97-3.54-30.08-3.75-48.77c12.52-0.16,24.59-1.54,35.93-3.95
			c-1.98,23.35-8.11,47.64-15.81,59.51c2.5,6.67,4.01,17.05,4.01,32.89c0,26.07-9.12,54.75-14.29,68.93
			c3.53,3.08,11.19,10.25,11.19,14.7c0,5.78-20.84,5.78-20.84,0c0-3.74,3.3-9.39,5.63-12.93
			C235.46,453.07,230.81,383.42,235.06,365.37z"/>
		<path class="st2" d="M194.09,93.06c0,0-38.38,92.11,51.18,120.95l64.39-10.6c0,0-11.68-3.8-14.17-24.74c0,0,6.4,23.25,24.26,23.12
			l24.06-3.3c0,0-36.07,13.2-84.54-105.91C259.26,92.56,228.2,52.26,194.09,93.06z"/>
		<path class="st1" d="M287.8,287.17c-0.04-0.01-0.09-0.01-0.12-0.03c0.64-9.82,0.93-23.79-1.53-33.25c-2-7.71-3.98-11.55-6.21-13.2
			c3.26-8.93,2.76-25.61-1.13-40.54c-4.92-18.96-13.53-28.33-21.23-26.8c0-0.02,0-0.04,0-0.06c-1.55,0.08-5.26-0.03-8.93-0.43
			c-0.6,4.29-2,24.2,7.42,28.3c0.01-0.01,0.31-0.32,0.66-0.67c3.25,15.96,9.02,34.59,13.8,42.53c-1,7.46,7.65,32.67,12.67,46.46
			c-2.02,2.33-4.02,6.16-5.36,10.73c-2.42,8.16,1.2,16.54,1.2,16.54s7.55-4.87,9.97-13.05C291.42,295.54,290.88,288.14,287.8,287.17
			z"/>
		<path class="st1" d="M210.88,176.99c-0.15,7.36-0.35,13.87,2.58,20.75c1.28,3.01,2.76,6.39,5.68,7.94
			c2.43,1.29,6.31,1.75,9.85,1.59c3.53,0.16,7.42-0.29,9.85-1.59c2.92-1.55,4.4-4.94,5.68-7.94c2.93-6.87,2.73-13.39,2.57-20.75
			c0-0.18,0.05-2.9-0.12-4.16c-2.31-0.44-4.22-1.02-5.05-1.78c-3.32-3.03-3.18-8.81-2.32-13.03c-3.39,1.3-7.02,2-10.8,1.97
			c-3.77,0.03-7.41-0.67-10.79-1.97c0.86,4.22,1,10-2.33,13.03c-0.78,0.72-2.53,1.28-4.67,1.71
			C210.83,173.99,210.88,176.81,210.88,176.99z"/>
		<path class="st0" d="M228.92,211.84c0,0,21.79,8.09,30.7,8.67c0,0-8.01,9.57-6.63,21.15c0.46,3.86,3.61,7.94,5.11,11.97
			c0,0-14.24,7.27-29.09,8.92c-14.86-1.71-29.12-9.04-29.12-9.04c1.38-3.74,4.5-7.53,4.97-11.14c1.54-11.92-6.61-21.94-6.61-21.94
			C207.15,219.88,228.92,211.84,228.92,211.84z"/>
		<path class="st3" d="M218.39,156.74"/>
		<path class="st4" d="M260.11,124.58c0.15,19.43-13.82,35.28-31.19,35.42c-17.38,0.13-31.59-15.51-31.73-34.92
			c-0.15-19.43,13.8-35.28,31.19-35.41C245.75,89.52,259.96,105.16,260.11,124.58z"/>
		<path class="st5" d="M220.71,84.06c0,0-20.83,21.97-15.12,51.38c0,0-36.78-48.09,15.01-65.79
			C220.6,69.66,230.54,69.13,220.71,84.06z"/>
		<path class="st6" d="M218.91,158.24c1.39,1.87,5.39,4.37,10.09,4.33c4.76-0.03,8.77-2.62,10.07-4.54
			c-3.18,1.25-6.59,1.95-10.15,1.97C225.42,160.02,222.06,159.4,218.91,158.24z"/>
		<path class="st5" d="M212.49,88.39c0,0,22.96,48.88,54.33,53.61c0,0-13.73-10.45-14.65-33.21c0,0,5.55,36.17,54.01,48.21
			c-32.77-8.14-29.68-37.63-41.12-62.29c-6.14-13.22-17.89-22.07-32.11-25.08C232.96,69.62,214.14,67.67,212.49,88.39z"/>
		<path class="st7" d="M257.9,251.38c-8.74,6.04-16.01,7.53-28.91,7.53c-12.9,0-20.17-1.49-28.91-7.54
			c-4.46,10.5-11.71,23.81-11.71,36.87c0,8.6,0.68,17.76,1.9,26.78c11,2.23,24.32,3.53,37.17,3.7c0.16-5.02,0.02-10.45-0.21-15.21
			l3.56,0.01c-0.24,4.76-0.4,10.2-0.24,15.2c12.85-0.16,26.16-1.47,37.17-3.7c1.22-9.02,1.89-18.18,1.89-26.78
			C269.6,275.19,262.35,261.88,257.9,251.38z"/>
		<path class="st0" d="M209.19,172.83c-3.09,0.35-6.24,0.49-8.16,0.49c-7.63-1.26-16.1,8.1-20.97,26.85
			c-3.88,14.93-4.39,31.61-1.13,40.54c-2.23,1.65-4.21,5.49-6.22,13.2c-2.45,9.45-2.16,23.43-1.53,33.25
			c-0.04,0.02-0.08,0.02-0.11,0.03c-3.09,0.97-3.62,8.37-1.2,16.54c2.42,8.18,9.97,13.05,9.97,13.05s3.62-8.38,1.2-16.54
			c-1.35-4.57-3.34-8.4-5.37-10.73c5.01-13.79,13.66-39,12.68-46.46c4.72-7.84,10.4-26.16,13.68-41.99
			C211.19,196.59,209.79,177.02,209.19,172.83z"/>
		<polygon class="st8" points="179.49,288.39 168.35,286.98 169.66,276.66 180.79,278.08 		"/>
		<path class="st9" d="M230.63,252.7c0,1.36-0.45,2.47-0.99,2.47c-0.55,0-1-1.11-1-2.47c0-1.36,0.45-2.47,1-2.47
			C230.19,250.23,230.63,251.34,230.63,252.7z"/>
		<path class="st10" d="M228.84,201.76c0,0-6.19-5.3-9.71-5.27c0,0,9.74,7.46,10.11,14.46c0,0,2.26-10.98,8.31-14.46
			C237.55,196.49,230.36,198.1,228.84,201.76z"/>
		<g>
			<path class="st10" d="M211.69,175.71c0,0,10.19-1.14,13.17,0.54c2.98,1.68,2.98,3.72,3.6,4.46
				C228.46,180.71,226.35,175.25,211.69,175.71z"/>
			<path class="st10" d="M247.96,175.71c0,0-10.18-1.14-13.16,0.54c-2.99,1.68-2.99,3.72-3.6,4.46
				C231.19,180.71,233.3,175.25,247.96,175.71z"/>
		</g>
		<g>
			<path class="st11" d="M212.8,237.06c0,0,0.08,0.25,0.37,0.61c0.95,1.14,4.2,3.45,14.76,2.58
				C227.93,240.25,212.8,243.7,212.8,237.06z"/>
			<path class="st11" d="M245.49,237.06c0,0-0.07,0.25-0.37,0.61c-0.94,1.14-4.19,3.45-14.76,2.58
				C230.37,240.25,245.49,243.7,245.49,237.06z"/>
			<path class="st11" d="M229.7,236.51c0,1.6-0.5,2.89-0.5,2.89s-0.51-1.29-0.51-2.89c0-1.59,0.51-2.88,0.51-2.88
				S229.7,234.91,229.7,236.51z"/>
			<path class="st11" d="M229.7,245.21c0,1.6-0.5,2.89-0.5,2.89s-0.51-1.29-0.51-2.89c0-1.6,0.51-2.88,0.51-2.88
				S229.7,243.62,229.7,245.21z"/>
			<path class="st11" d="M212.8,244.22c0,0,4.04,5.09,12.61,4.28C225.41,248.5,214.57,250.5,212.8,244.22z"/>
			<path class="st11" d="M247.04,244.22c0,0-4.03,5.09-12.61,4.28C234.43,248.5,245.27,250.5,247.04,244.22z"/>
			<path class="st11" d="M218.1,249.85c0,0-7.31,4.52-5.3,8.86C212.8,258.7,213.81,253.78,218.1,249.85z"/>
			<path class="st11" d="M240.73,249.58c0,0,7.32,4.51,5.3,8.85C246.03,258.43,245.02,253.5,240.73,249.58z"/>
			<path class="st11" d="M217.09,233.9c0,0,2.27-0.3,8.31-2.34c0,0,3.79-1.36,7.57,0c0,0,6.31,2.66,9.58,2.83
				c-1.55-0.08-3.17-0.36-4.68-0.61c-4.56-0.76-7.8-2.52-12.47-1.11C225.41,232.67,219.61,234.44,217.09,233.9z"/>
		</g>
		<path class="st8" d="M261.33,257.78c-1.18-2.63-2.34-5.17-3.35-7.55c-8.73,6.05-16.01,7.54-28.91,7.54
			c-12.9,0-20.17-1.49-28.9-7.54c-1.06,2.51-2.28,5.16-3.52,7.93c9.51,6.23,17.82,7.8,32.05,7.8
			C243.22,265.97,251.57,264.33,261.33,257.78z"/>
		<path class="st8" d="M259.59,202.16c-12.46-4.34-8.31-29.93-8.31-29.93l-4.53-0.03c0.44,0,0.35,4.56,0.35,4.8
			c0.16,7.36,0.36,13.87-2.57,20.75c-1.28,3.01-2.77,6.39-5.68,7.94c-2.43,1.29-6.32,1.75-9.85,1.59c-3.54,0.16-7.42-0.29-9.85-1.59
			c-2.92-1.55-4.39-4.94-5.68-7.94c-2.94-6.87-2.73-13.39-2.58-20.75c0-0.24-0.08-4.8,0.36-4.8l-4.53,0.03
			c0,0,4.13,25.59-8.32,29.93c0,0-10.62,20.02,11.58,28.92c0,0,9.71,3.19,19.02-4.08c9.3,7.27,19.02,4.08,19.02,4.08
			C270.21,222.17,259.59,202.16,259.59,202.16z"/>
	</g>
	<g>
		<path class="st2" d="M190.26,305.1c0,9.4-7.62,17.03-17.04,17.03c-9.4,0-17.03-7.62-17.03-17.03c0-9.42,7.62-17.04,17.03-17.04
			C182.64,288.06,190.26,295.68,190.26,305.1z"/>
		<path class="st12" d="M181.58,305.1c0,4.61-3.74,8.35-8.36,8.35c-4.61,0-8.35-3.74-8.35-8.35c0-4.62,3.73-8.36,8.35-8.36
			C177.85,296.74,181.58,300.48,181.58,305.1z"/>
	</g>
	<g>
		<path class="st2" d="M301.71,305.1c0,9.4-7.63,17.03-17.04,17.03c-9.4,0-17.04-7.62-17.04-17.03c0-9.42,7.63-17.04,17.04-17.04
			C294.07,288.06,301.71,295.68,301.71,305.1z"/>
		<path class="st12" d="M293.03,305.1c0,4.61-3.75,8.35-8.36,8.35c-4.62,0-8.35-3.74-8.35-8.35c0-4.62,3.73-8.36,8.35-8.36
			C289.28,296.74,293.03,300.48,293.03,305.1z"/>
	</g>
</g>
</svg>
