<?xml version="1.0" encoding="utf-8"?>
<!-- Generator: Adobe Illustrator 23.0.2, SVG Export Plug-In . SVG Version: 6.00 Build 0)  -->
<svg version="1.1" id="Layer_1" xmlns="http://www.w3.org/2000/svg" xmlns:xlink="http://www.w3.org/1999/xlink" x="0px" y="0px"
	 viewBox="0 0 500 500" style="enable-background:new 0 0 500 500;" xml:space="preserve">
<style type="text/css">
	.st0{fill:#E49063;}
	.st1{fill:#3C2415;}
	.st2{fill:#754C29;}
	.st3{fill:#FAB47E;}
	.st4{fill:#075577;}
	.st5{fill:#FBC495;}
	.st6{fill:#0071BC;}
	.st7{fill:#ED1C24;}
	.st8{fill:#903918;}
</style>
<g>
	<g>
		<g>
			<path class="st0" d="M261.45,48.4c-1.61,18.8-3.55,49.08-0.14,57.33c-2.85,9.86-0.17,30.13,0.43,48.78
				c-2.9,4.55-4.56,10.89-4.25,17.84c0.61,13.37,4.48,23.81,13.32,23.4c8.83-0.4,12.98-11.62,12.37-25c-0.1-2.2-0.41-4.3-0.85-6.31
				c0.25-2.94,0.37-6.09,0.35-9.42c-0.1-19.37-2.34-39.71-9.18-49.5c2.17-2.71,3.34-8.01,3.29-18.03
				c-0.07-12.7-5.28-30.36-9.29-42.1c2.44-3.1,6.31-8.13,7.7-14.06c2.44-10.43,2.62-19.81-7.55-18.97
				c-10.16,0.85-10.71,5.27-13.15,15.7C252.17,37.98,257.93,46.84,261.45,48.4z"/>
			<g>
				<path class="st1" d="M285.01,26.91c-0.7,9.38-8.88,16.41-18.26,15.71c-9.38-0.7-16.41-8.88-15.71-18.26
					c0.7-9.39,8.88-16.42,18.26-15.72C278.68,9.35,285.72,17.53,285.01,26.91z"/>
				<path class="st2" d="M276.35,26.26c-0.34,4.61-4.36,8.05-8.95,7.71c-4.6-0.34-8.05-4.35-7.71-8.96c0.35-4.6,4.36-8.05,8.96-7.71
					C273.25,17.65,276.7,21.66,276.35,26.26z"/>
			</g>
			<g>
				<path class="st1" d="M275.23,33.63c-0.7,9.38-8.88,16.42-18.26,15.71c-9.38-0.71-16.42-8.88-15.72-18.27
					c0.71-9.37,8.88-16.41,18.26-15.71C268.9,16.07,275.93,24.25,275.23,33.63z"/>
				<path class="st2" d="M266.57,32.98c-0.34,4.6-4.35,8.05-8.95,7.7c-4.6-0.34-8.05-4.36-7.71-8.95c0.35-4.6,4.36-8.05,8.96-7.7
					C263.47,24.36,266.92,28.38,266.57,32.98z"/>
			</g>
		</g>
		<path class="st0" d="M277.27,484.86c-12.39-3.82-19.84-8.63-23.26-11.24c2.56-18.56,8.37-62.82,9.44-90.13
			c4.57-8.77,7.11-36.02,7.51-64.31c-4.03,0.15-8.1,0.23-12.21,0.23c-9.05,0-17.93-0.37-26.59-1.07
			c2.14,18.63,7.41,38.12,13.61,51.46c-3.53,6.41-6.22,16.87-7.29,33.48c-1.72,26.73,6.83,56.86,11.48,70.93
			c-1.83,2.71-4.42,7.18-4.67,10.89c2.5,8.36,14.92,1.64,29.99,4.65C288.35,493.35,281.25,486.11,277.27,484.86z"/>
		<path class="st3" d="M282.88,486.12c-12.4-3.82-19.84-8.63-23.26-11.23c2.57-18.56,8.37-62.83,9.44-90.13
			c4.57-8.78,7.11-36.02,7.51-64.31c-4.03,0.15-8.1,0.23-12.21,0.23c-9.05,0-17.93-0.37-26.58-1.07
			c2.14,18.63,7.41,38.12,13.6,51.45c-3.53,6.41-6.21,16.87-7.29,33.48c-1.72,26.72,6.84,56.86,11.48,70.93
			c-1.83,2.72-4.42,7.17-4.67,10.88c2.5,8.36,14.92,1.64,29.99,4.66C293.96,494.61,286.86,487.36,282.88,486.12z"/>
		<polygon class="st4" points="232.39,321.87 243.98,321.46 231.41,304.9 		"/>
		<path class="st1" d="M243,87.52c0,0,7.93,92.43,36.77,111.05c0,0-18.16-40.62-7.58-69.47c0,0-12.74,47.51,29.4,82.21
			c-28.5-23.48-8.51-59.13-7.44-94.61c0.56-19.03-8.67-34.86-21.3-44.4C272.84,72.32,255.1,62.26,243,87.52z"/>
		<path class="st5" d="M242.88,209.18c0,0,51.89,17.04,52.41,0.67c0.22-6.86-9.3-12.02-15.34-20.68
			c-8.38-12-19.77-23.55-19.77-23.55c-2.64-6.96,1.61-12.14,1.61-12.14c5.23-0.99,13.17,1.32,15.93-1.03
			c5.21-4.44,6.74-14.76,6.74-14.76c2.61-1.19,6.88-6.86,6.88-6.86c-6.31-6.34-6.88-11.94-6.88-11.94
			c-1.4-2.68,2.41-14.85,2.41-14.85c0.8-6.4-4.22-21.88-4.22-21.88s-27.86-29.65-47.69,16.69L242.88,209.18z"/>
		<path class="st0" d="M243.95,226.01c0,0,2.34,23.98-8.08,36.98l45.98,8.42c0,0-4.7-22.88,2.38-41.36L243.95,226.01z"/>
		<path class="st6" d="M281.17,269.23c-14.01,0-25.24-9.61-38.68-14.92c-3.17-0.91-12.47,11.41-14.2,13.93
			c-13.9,20.13,0.08,35.54,9.26,52.81c1.07,0.17,2.95,0.31,4.01,0.42c12.09,1.29,21.54-0.88,36.1-0.75L281.17,269.23z"/>
		<path class="st7" d="M254.98,172.92c-2.13-1.41-4.87-2.25-8.51-2.25c-10.83,0-13.41,11.21-13.41,23.36l9.33,40.59l39.79,2.23
			c9.08-2.92,16.85-8.75,16.85-18.25c0-4.61-1.55-8.89-4.17-12.4c-0.28-0.39-7.53-0.92-8.81-1.43c-4.35-1.76-7.27-4.97-9.78-8.62
			C271.28,188.85,262.14,177.65,254.98,172.92z"/>
		<polygon class="st7" points="281.25,271.94 233.73,261.44 240.56,254.05 281.25,262.13 		"/>
		<path class="st8" d="M238.7,232.69c0,0-12.61-17.46,12.3-99.7c0,0-10.21-19.19,2.86-17.56c0,0,5.32,0.82,5.32,6.94
			c0,0,25.12-22.91,15.52-35.54c0,0,8.96-0.41,17.55,14.3c0,0-7.02-43.86-51.55-38.14c0,0-60.08-4.93-36.58,114.2
			c3.14,15.92,5.98,42.47-5.69,56.58l26.02-1.22c0,0-6.6-32.92,4.98-51.94c-9.97,19.84-1.66,52.08-1.66,52.08H238.7z"/>
		<g>
			<path class="st3" d="M237.41,61.06c-1.17,18.83-2.38,49.14,1.21,57.31c-2.62,9.92,0.55,30.13,1.58,48.75
				c-2.79,4.62-4.29,11-3.82,17.95c0.92,13.35,5.04,23.69,13.86,23.08c8.82-0.61,12.7-11.94,11.78-25.29
				c-0.16-2.19-0.51-4.29-1.01-6.29c0.18-2.95,0.23-6.09,0.13-9.43c-0.55-19.36-3.28-39.65-10.34-49.27
				c2.11-2.76,3.15-8.09,2.86-18.09c-0.37-12.7-6-30.23-10.28-41.87c2.36-3.16,6.11-8.27,7.36-14.24
				c2.2-10.48,2.15-19.87-7.99-18.78c-10.15,1.08-10.59,5.52-12.78,16C227.88,50.85,233.84,59.57,237.41,61.06z"/>
			<g>
				<path class="st1" d="M260.45,35.23c-0.48,9.39-8.48,16.62-17.89,16.14c-9.39-0.48-16.62-8.49-16.14-17.89
					c0.48-9.39,8.49-16.61,17.89-16.14C253.7,17.83,260.93,25.83,260.45,35.23z"/>
				<path class="st2" d="M251.78,34.79c-0.24,4.61-4.17,8.15-8.77,7.91c-4.61-0.23-8.16-4.16-7.92-8.77
					c0.23-4.61,4.16-8.15,8.77-7.91C248.47,26.24,252.02,30.17,251.78,34.79z"/>
			</g>
			<g>
				<path class="st1" d="M250.83,42.18c-0.48,9.39-8.49,16.62-17.89,16.14c-9.39-0.48-16.62-8.49-16.14-17.88
					c0.48-9.4,8.48-16.63,17.89-16.14C244.08,24.77,251.31,32.78,250.83,42.18z"/>
				<path class="st2" d="M242.16,41.74c-0.24,4.6-4.16,8.15-8.77,7.92c-4.61-0.24-8.16-4.17-7.91-8.78
					c0.23-4.61,4.16-8.16,8.77-7.92C238.85,33.19,242.4,37.12,242.16,41.74z"/>
			</g>
		</g>
	</g>
	
		<rect x="258.23" y="49.34" transform="matrix(0.9846 -0.1749 0.1749 0.9846 -5.3171 47.3247)" class="st7" width="15.32" height="8.99"/>
</g>
</svg>
