<?xml version="1.0" encoding="utf-8"?>
<!-- Generator: Adobe Illustrator 23.0.2, SVG Export Plug-In . SVG Version: 6.00 Build 0)  -->
<svg version="1.1" id="Layer_1" xmlns="http://www.w3.org/2000/svg" xmlns:xlink="http://www.w3.org/1999/xlink" x="0px" y="0px"
	 viewBox="0 0 500 500" style="enable-background:new 0 0 500 500;" xml:space="preserve">
<style type="text/css">
	.st0{fill:#3C2415;}
	.st1{fill:#754C29;}
	.st2{fill:#E49063;}
	.st3{fill:#FAB47E;}
	.st4{fill:#075577;}
	.st5{fill:#FBC495;}
	.st6{fill:#0071BC;}
	.st7{fill:#ED1C24;}
	.st8{fill:#903918;}
</style>
<g>
	<g>
		<g>
			<g>
				<path class="st0" d="M243.02,179.59c-5.44-7.59-16.01-9.32-23.6-3.88c-7.58,5.44-9.32,16-3.88,23.59
					c5.44,7.58,16.01,9.32,23.6,3.88C246.74,197.74,248.47,187.18,243.02,179.59z"/>
				<path class="st1" d="M236.03,184.62c-2.67-3.73-7.86-4.57-11.57-1.9c-3.72,2.66-4.58,7.85-1.9,11.57
					c2.67,3.72,7.85,4.57,11.57,1.91C237.84,193.52,238.7,188.34,236.03,184.62z"/>
			</g>
			<path class="st2" d="M286.37,224.72c-5.85,9.78-18.19,29.46-30.18,33.9c-11.79-6.07-27.8-41.22-28.03-51.53
				c-0.22-8.23-16.13-18.53-8.08-26.14c7.42-6.99,17.18,20.41,16.35,24.55c3.35,6.4,16.87,15.64,20.13,30.47
				c2.51-6.03,6.56-17.18,10.59-23.92c13.7-22.89,20.48-25.39,27.36-22.16C301.38,193.12,300.07,201.82,286.37,224.72z"/>
			<g>
				<path class="st0" d="M231.27,178.95c-5.45-7.59-16.01-9.32-23.6-3.88c-7.58,5.44-9.32,16.01-3.88,23.59
					c5.45,7.59,16.02,9.32,23.6,3.88C234.97,197.11,236.71,186.54,231.27,178.95z"/>
				<path class="st1" d="M224.27,183.98c-2.67-3.72-7.85-4.57-11.58-1.9c-3.72,2.67-4.57,7.86-1.91,11.58
					c2.68,3.71,7.86,4.57,11.58,1.9C226.09,192.88,226.94,187.7,224.27,183.98z"/>
			</g>
		</g>
		<path class="st2" d="M268.47,483.41c12.3-3.8,19.69-8.57,23.09-11.15c-2.54-18.42-8.31-62.36-9.37-89.46
			c-4.53-8.71-7.05-35.75-7.45-63.84c4,0.14,8.04,0.22,12.11,0.22c8.99,0,17.8-0.37,26.39-1.06c-2.11,18.49-7.35,37.84-13.5,51.08
			c3.51,6.37,6.18,16.74,7.25,33.23c1.71,26.53-6.78,56.44-11.4,70.4c1.81,2.69,4.39,7.12,4.63,10.81
			c-2.48,8.3-14.81,1.63-29.77,4.62C257.47,491.84,264.52,484.65,268.47,483.41z"/>
		<path class="st3" d="M262.91,484.67c12.3-3.8,19.69-8.56,23.09-11.15c-2.54-18.42-8.31-62.37-9.37-89.47
			c-4.54-8.71-7.06-35.75-7.46-63.83c4,0.15,8.04,0.22,12.12,0.22c8.99,0,17.8-0.37,26.39-1.06c-2.11,18.49-7.35,37.83-13.5,51.07
			c3.5,6.37,6.17,16.75,7.24,33.23c1.72,26.52-6.78,56.44-11.39,70.4c1.81,2.7,4.39,7.12,4.63,10.8c-2.48,8.3-14.81,1.63-29.76,4.62
			C251.91,493.08,258.95,485.9,262.91,484.67z"/>
		<polygon class="st4" points="313.02,321.63 301.52,321.22 313.99,304.79 		"/>
		<path class="st0" d="M302.49,89.01c0,0-7.87,91.74-36.49,110.23c0,0,18.02-40.32,7.53-68.95c0,0,12.64,47.15-29.18,81.61
			c28.28-23.31,8.44-58.69,7.38-93.91c-0.56-18.88,8.61-34.6,21.14-44.06C272.87,73.93,290.48,63.94,302.49,89.01z"/>
		<path class="st5" d="M302.61,209.78c0,0-50.25,16.91-50.77,0.67c-0.21-6.81,7.97-11.93,13.97-20.53
			c8.32-11.91,19.62-23.37,19.62-23.37c2.62-6.9-1.6-12.05-1.6-12.05c-5.18-0.99-13.07,1.31-15.81-1.02
			c-5.17-4.4-6.69-14.65-6.69-14.65c-2.58-1.18-6.82-6.81-6.82-6.81c6.27-6.29,6.83-11.85,6.83-11.85
			c1.4-2.66-2.39-14.74-2.39-14.74c-0.79-6.35,4.2-21.71,4.2-21.71s27.66-29.44,47.33,16.57L302.61,209.78z"/>
		<path class="st2" d="M301.54,226.48c0,0-2.32,23.8,8.02,36.71l-45.65,8.36c0,0,4.66-22.71-2.37-41.05L301.54,226.48z"/>
		<path class="st6" d="M264.6,269.37c13.92,0,25.05-9.54,38.4-14.81c3.15-0.91,12.38,11.33,14.1,13.83
			c13.8,19.98-0.08,35.28-9.19,52.42c-1.08,0.16-2.94,0.3-3.99,0.41c-12,1.28-21.39-0.87-35.83-0.74L264.6,269.37z"/>
		<path class="st7" d="M290.6,173.78c2.11-1.4,4.83-2.23,8.44-2.23c10.75,0,13.31,11.12,13.31,23.19l-9.26,40.29l-39.5,2.21
			c-9.01-2.9-16.71-8.69-16.71-18.11c0-4.58,1.54-8.82,4.13-12.31c0.29-0.38,7.48-0.91,8.74-1.42c4.32-1.74,7.22-4.93,9.71-8.56
			C274.42,189.6,283.5,178.48,290.6,173.78z"/>
		<polygon class="st7" points="264.52,272.07 311.68,261.64 304.91,254.31 264.52,262.33 		"/>
		<path class="st8" d="M306.75,233.11c0,0,12.51-17.33-12.2-98.96c0,0,10.14-19.05-2.84-17.43c0,0-5.27,0.81-5.27,6.89
			c0,0-24.94-22.74-15.41-35.27c0,0-8.9-0.41-17.42,14.2c0,0,6.96-43.53,51.17-37.85c0,0,59.64-4.89,36.3,113.35
			c-3.12,15.8-5.93,42.16,5.65,56.16l-25.82-1.22c0,0,6.55-32.67-4.94-51.56c9.9,19.69,1.64,51.69,1.64,51.69H306.75z"/>
		<g>
			<g>
				<path class="st0" d="M153.28,198.68c0.48,9.32,8.42,16.5,17.75,16.02c9.32-0.48,16.5-8.43,16.02-17.75
					c-0.47-9.32-8.42-16.5-17.75-16.02C159.97,181.4,152.8,189.35,153.28,198.68z"/>
				<path class="st1" d="M161.89,198.23c0.23,4.57,4.13,8.09,8.71,7.85c4.57-0.23,8.09-4.13,7.85-8.7c-0.23-4.58-4.14-8.1-8.71-7.86
					C165.17,189.76,161.65,193.66,161.89,198.23z"/>
			</g>
			<path class="st3" d="M169.12,193.6c7.57-2.72,14.53-2.72,16.09-0.1c14.61-2.97,38.2-7.23,44.99-5.31
				c10.58-4.44,37.77-7.99,55.01-7.73c1.36-1.5,3.01-2.55,4.9-2.96c6.84-1.48,14.18,5.72,16.41,16.06
				c2.23,10.34-1.5,19.93-8.33,21.4c-6.48,1.39-13.4-5-16.01-14.48c-3.27,0.85-6.96,1.54-11.05,1.99
				c-15.22,1.68-31.69-0.21-39.99-4.69c-1.93,1.95-5.99,3.34-13.85,4.21c-9.98,1.1-24.31-1.39-33.89-3.48
				c-2.22,2.2-5.99,4.45-10.52,6.08c-7.97,2.86-10.03-0.31-10.03-0.31S161.16,196.46,169.12,193.6z"/>
			<g>
				<path class="st0" d="M157.53,207.15c0.48,9.32,8.43,16.49,17.75,16.02c9.33-0.48,16.5-8.43,16.02-17.75
					c-0.48-9.32-8.43-16.5-17.76-16.02C164.23,189.88,157.06,197.83,157.53,207.15z"/>
				<path class="st1" d="M166.14,206.71c0.23,4.57,4.13,8.09,8.71,7.86c4.58-0.23,8.09-4.14,7.86-8.71
					c-0.23-4.58-4.13-8.09-8.71-7.86C169.42,198.23,165.9,202.13,166.14,206.71z"/>
			</g>
		</g>
	</g>
	<polygon class="st7" points="230.08,218.08 243.42,210.83 239.27,203.19 225.92,210.44 	"/>
</g>
</svg>
