<?xml version="1.0" encoding="utf-8"?>
<!-- Generator: Adobe Illustrator 23.0.2, SVG Export Plug-In . SVG Version: 6.00 Build 0)  -->
<svg version="1.1" id="Layer_1" xmlns="http://www.w3.org/2000/svg" xmlns:xlink="http://www.w3.org/1999/xlink" x="0px" y="0px"
	 viewBox="0 0 500 500" style="enable-background:new 0 0 500 500;" xml:space="preserve">
<style type="text/css">
	.st0{fill:#3C2415;}
	.st1{fill:#E49063;}
	.st2{fill:#FAB47E;}
	.st3{fill:#FFDCAA;}
	.st4{fill:#FBC495;}
	.st5{fill:#903918;}
	.st6{fill:#B26E37;}
	.st7{fill:#0071BC;}
	.st8{fill:#C7514C;}
	.st9{fill:#CF7656;}
	.st10{fill:#DD795B;}
	.st11{fill:#ED1C24;}
</style>
<g>
	<g>
		<path class="st0" d="M215.52,87.47c0,0-38.35,91.99,51.13,120.79l64.35-10.59c0,0-11.68-3.79-14.17-24.73
			c0,0,6.39,23.24,24.24,23.1l24.03-3.3c0,0-36.04,13.19-84.47-105.77C280.62,86.97,249.61,46.71,215.52,87.47z"/>
		<polygon class="st0" points="187.36,85.21 180.67,85.28 180.62,80.37 170.58,80.48 170.71,92.52 143.95,92.79 143.83,80.76 
			133.79,80.87 133.84,85.76 127.16,85.84 127.39,109.01 134.09,108.94 134.14,113.85 144.17,113.73 144.04,101.7 170.8,101.42 
			170.93,113.45 180.96,113.35 180.91,108.45 187.59,108.38 		"/>
		<path class="st1" d="M207.2,170.78c-13.28-1.54-26.85-3.12-39.04-1.99c2.84-16.14-4.15-42.64-5.31-58.73l-0.16-0.06
			c3.25-2.34,5.47-6.89,5.47-12.13c0-7.63-4.68-13.81-10.44-13.81c-5.76,0-10.44,6.18-10.44,13.81c0,5.22,2.19,9.76,5.42,12.1
			c-0.68,5.87-2.59,23.08-3.31,38.23c-0.35,7.47,2.85,26.95,4.3,29.45c2.24,12.07,44.38,18.09,64,18.48
			c17.8,0.35,9.85-10.2,12.15-16.94c0.15,0.04,0.31,0.07,0.47,0.11c0.33-1.52,1.43-7.58,2.8-10.99
			C229.59,166.77,214.26,166.14,207.2,170.78z"/>
		<polygon class="st0" points="312.64,85.28 319.33,85.35 319.38,80.44 329.42,80.54 329.29,92.59 356.05,92.86 356.17,80.83 
			366.21,80.93 366.15,85.83 372.84,85.9 372.61,109.08 365.91,109.01 365.86,113.92 355.83,113.8 355.96,101.77 329.2,101.49 
			329.07,113.52 319.04,113.42 319.09,108.52 312.4,108.45 		"/>
		<path class="st2" d="M292.8,170.84c13.27-1.53,26.85-3.11,39.04-1.99c-2.84-16.14,4.16-42.63,5.31-58.72l0.16-0.06
			c-3.25-2.34-5.46-6.9-5.46-12.13c0-7.62,4.67-13.8,10.44-13.8c5.76,0,10.43,6.18,10.43,13.8c0,5.22-2.19,9.76-5.42,12.1
			c0.69,5.87,2.6,23.09,3.31,38.24c0.36,7.46-2.85,26.94-4.29,29.45c-2.24,12.07-43.13,18.09-62.75,18.49
			c-17.79,0.35-11.11-10.2-13.41-16.95c-0.15,0.04-0.32,0.07-0.47,0.11c-0.33-1.51-1.44-7.58-2.8-11
			C270.41,166.84,285.74,166.21,292.8,170.84z"/>
		<path class="st1" d="M244.71,359.49c2.29-11.96,3.54-30.06,3.75-48.72c-12.52-0.17-24.57-1.54-35.9-3.95
			c1.97,23.33,8.1,47.59,15.8,59.45c-2.5,6.67-4.01,17.04-4.01,32.85c0,26.05,9.11,54.71,14.27,68.87
			c-3.53,3.07-11.17,10.24-11.17,14.69c0,5.77,20.81,5.77,20.81,0c0-3.74-3.29-9.39-5.62-12.92
			C244.31,447.1,248.96,377.52,244.71,359.49z"/>
		<path class="st2" d="M256.46,359.49c-2.29-11.96-3.54-30.06-3.75-48.72c12.52-0.17,24.58-1.54,35.91-3.95
			c-1.99,23.33-8.11,47.59-15.81,59.45c2.51,6.68,4.01,17.04,4.01,32.85c0,26.05-9.11,54.71-14.28,68.87
			c3.54,3.07,11.18,10.24,11.18,14.69c0,5.77-20.83,5.77-20.83,0c0-3.74,3.29-9.39,5.62-12.92
			C256.86,447.1,252.2,377.52,256.46,359.49z"/>
		<path class="st2" d="M232.29,171.28c-0.15,7.36-0.35,13.86,2.58,20.73c1.28,3.01,2.76,6.39,5.67,7.94
			c2.43,1.3,6.32,1.74,9.85,1.58c3.53,0.16,7.4-0.28,9.84-1.58c2.92-1.56,4.39-4.93,5.67-7.94c2.94-6.87,2.74-13.37,2.59-20.73
			c-0.01-0.18,0.04-2.89-0.13-4.15c-2.3-0.43-4.22-1.02-5.04-1.78c-3.33-3.04-3.18-8.8-2.32-13.02c-3.38,1.29-7.01,1.99-10.79,1.96
			c-3.77,0.03-7.39-0.67-10.79-1.96c0.87,4.22,1.02,9.98-2.31,13.02c-0.78,0.72-2.53,1.28-4.66,1.7
			C232.25,168.29,232.3,171.09,232.29,171.28z"/>
		<path class="st1" d="M250.32,206.1c0,0,21.78,8.08,30.67,8.67c0,0-8,9.56-6.63,21.13c0.46,3.86,3.6,7.93,5.1,11.95
			c0,0-14.21,7.27-29.06,8.91c-14.85-1.7-29.1-9.03-29.1-9.03c1.38-3.73,4.5-7.52,4.97-11.13c1.55-11.91-6.6-21.91-6.6-21.91
			C228.57,214.13,250.32,206.1,250.32,206.1z"/>
		<path class="st3" d="M239.8,151.06"/>
		<path class="st4" d="M281.47,118.94c0.16,19.39-13.79,35.23-31.15,35.36c-17.36,0.13-31.55-15.49-31.7-34.87
			c-0.15-19.4,13.8-35.24,31.15-35.37C267.13,83.93,281.33,99.56,281.47,118.94z"/>
		<path class="st5" d="M242.12,78.47c0,0-20.82,21.95-15.11,51.32c0,0-36.75-48.03,14.99-65.71
			C242.01,64.09,251.94,63.57,242.12,78.47z"/>
		<path class="st6" d="M240.32,152.55c1.38,1.87,5.38,4.36,10.09,4.32c4.76-0.04,8.76-2.62,10.06-4.54
			c-3.18,1.24-6.59,1.94-10.15,1.97C246.83,154.33,243.47,153.71,240.32,152.55z"/>
		<path class="st5" d="M233.9,82.81c0,0,22.94,48.81,54.28,53.53c0,0-13.72-10.43-14.65-33.16c0,0,5.55,36.11,53.97,48.13
			c-32.75-8.12-29.65-37.57-41.08-62.19c-6.14-13.22-17.87-22.05-32.08-25.06C254.35,64.05,235.56,62.11,233.9,82.81z"/>
		<path class="st7" d="M279.27,245.6c-8.73,6.05-16,7.53-28.88,7.53c-12.88,0-20.15-1.49-28.88-7.53
			c-4.45,10.49-11.7,23.79-11.7,36.83c0,8.59,0.68,17.75,1.89,26.76c10.99,2.24,24.3,3.53,37.14,3.7
			c0.15-5.02,0.02-10.45-0.22-15.19l3.54,0.01c-0.24,4.76-0.39,10.18-0.23,15.18c12.83-0.17,26.14-1.46,37.13-3.7
			c1.22-9,1.9-18.16,1.9-26.76C290.97,269.39,283.72,256.09,279.27,245.6z"/>
		<path class="st8" d="M252.03,246.92c0,1.36-0.45,2.46-0.99,2.46c-0.55,0-0.99-1.1-0.99-2.46c0-1.36,0.44-2.46,0.99-2.46
			C251.59,244.46,252.03,245.56,252.03,246.92z"/>
		<path class="st9" d="M250.23,196.03c0,0-6.18-5.28-9.69-5.27c0,0,9.72,7.46,10.09,14.46c0,0,2.26-10.97,8.3-14.46
			C258.94,190.76,251.75,192.37,250.23,196.03z"/>
		<g>
			<path class="st9" d="M233.1,170c0,0,10.17-1.14,13.15,0.54c2.98,1.68,2.98,3.72,3.6,4.46C249.85,175,247.75,169.54,233.1,170z"/>
			<path class="st9" d="M269.34,170c0,0-10.17-1.14-13.16,0.54c-2.98,1.68-2.98,3.72-3.59,4.46C252.59,175,254.69,169.54,269.34,170
				z"/>
		</g>
		<g>
			<path class="st10" d="M234.21,231.29c0,0,0.08,0.25,0.37,0.61c0.95,1.15,4.2,3.44,14.75,2.59
				C249.33,234.48,234.21,237.93,234.21,231.29z"/>
			<path class="st10" d="M266.88,231.29c0,0-0.08,0.25-0.38,0.61c-0.94,1.15-4.2,3.44-14.75,2.59
				C251.76,234.48,266.88,237.93,266.88,231.29z"/>
			<path class="st10" d="M251.1,230.75c0,1.59-0.51,2.88-0.51,2.88s-0.5-1.29-0.5-2.88c0-1.59,0.5-2.89,0.5-2.89
				S251.1,229.15,251.1,230.75z"/>
			<path class="st10" d="M251.1,239.45c0,1.59-0.51,2.88-0.51,2.88s-0.5-1.29-0.5-2.88s0.5-2.89,0.5-2.89S251.1,237.85,251.1,239.45
				z"/>
			<path class="st10" d="M234.21,238.45c0,0,4.04,5.09,12.6,4.28C246.81,242.72,235.98,244.72,234.21,238.45z"/>
			<path class="st10" d="M268.42,238.45c0,0-4.04,5.09-12.6,4.28C255.82,242.72,266.65,244.72,268.42,238.45z"/>
			<path class="st10" d="M239.51,244.07c0,0-7.31,4.51-5.3,8.84C234.21,252.91,235.22,248,239.51,244.07z"/>
			<path class="st10" d="M262.13,243.8c0,0,7.3,4.51,5.29,8.84C267.41,252.65,266.4,247.73,262.13,243.8z"/>
			<path class="st10" d="M238.49,228.14c0,0,2.27-0.3,8.32-2.33c0,0,3.78-1.36,7.56,0c0,0,6.29,2.66,9.57,2.82
				c-1.55-0.07-3.17-0.35-4.68-0.61c-4.56-0.76-7.8-2.52-12.45-1.1C246.81,226.92,241.01,228.67,238.49,228.14z"/>
		</g>
		<path class="st11" d="M282.69,251.99c-1.18-2.63-2.33-5.15-3.34-7.53c-8.72,6.04-16,7.52-28.88,7.52
			c-12.88,0-20.15-1.49-28.87-7.53c-1.06,2.49-2.28,5.15-3.52,7.92c9.5,6.22,17.81,7.8,32.01,7.8
			C264.6,260.18,272.95,258.53,282.69,251.99z"/>
		<path class="st11" d="M280.96,196.43c-12.43-4.34-8.31-29.91-8.31-29.91l-4.52-0.04c0.43,0.01,0.35,4.56,0.36,4.8
			c0.15,7.36,0.35,13.86-2.59,20.73c-1.28,3.01-2.75,6.39-5.67,7.94c-2.43,1.3-6.31,1.74-9.84,1.58c-3.53,0.16-7.42-0.28-9.85-1.58
			c-2.91-1.56-4.39-4.93-5.67-7.94c-2.94-6.87-2.74-13.37-2.58-20.73c0.01-0.24-0.07-4.79,0.36-4.8l-4.53,0.04
			c0,0,4.13,25.56-8.3,29.91c0,0-10.62,20,11.56,28.89c0,0,9.7,3.19,19.01-4.07c9.3,7.26,19,4.07,19,4.07
			C291.57,216.43,280.96,196.43,280.96,196.43z"/>
	</g>
	<rect x="150.19" y="111.22" class="st11" width="14.65" height="9.22"/>
</g>
</svg>
